<svg width="14" height="8" viewBox="0 0 14 8" fill="none" xmlns="http://www.w3.org/2000/svg">
<path d="M13.8396 3.61289C13.8394 3.61272 13.8393 3.61253 13.8391 3.61237L10.9816 0.768623C10.7675 0.555588 10.4213 0.556381 10.2082 0.770482C9.9951 0.984556 9.99592 1.33081 10.21 1.54387L12.1285 3.45312H0.546875C0.244836 3.45312 0 3.69795 0 3.99999C0 4.30203 0.244836 4.54687 0.546875 4.54687H12.1285L10.21 6.45612C9.99594 6.66918 9.99512 7.01543 10.2082 7.2295C10.4213 7.44363 10.7676 7.44437 10.9816 7.23136L13.8391 4.38762C13.8393 4.38745 13.8394 4.38726 13.8396 4.3871C14.0538 4.17333 14.0531 3.82595 13.8396 3.61289Z" fill="white"/>
</svg>
