<svg width="38" height="21" viewBox="0 0 38 21" fill="none" xmlns="http://www.w3.org/2000/svg">
<path d="M17.1499 8.98292C18.3606 9.44368 20.055 8.37061 20.9275 6.5905C21.7999 4.81052 21.525 2.98747 20.3143 2.52672C19.104 2.06609 17.4093 3.13951 16.5369 4.91953C15.6644 6.69964 15.9396 8.52229 17.1499 8.98292Z" fill="white"/>
<path d="M21.6958 14.1683C21.6842 14.0775 21.6726 13.9916 21.6764 13.9237C21.7529 12.4866 21.0906 10.4709 18.9677 9.52105L18.8857 9.48535C16.7793 8.58564 14.8455 9.40064 13.7377 10.4638C13.6996 10.5001 13.6339 10.5402 13.5643 10.5826C13.4822 10.6321 13.4 10.6834 13.3221 10.7441C12.5061 11.3778 11.8602 12.2079 11.504 13.0814C11.1254 14.0085 11.113 14.8779 11.4678 15.5283C11.6112 15.7909 11.81 15.9773 12.0589 16.0836C12.5722 16.3029 13.1988 16.1584 13.9247 15.9911C14.3865 15.8841 14.8634 15.7739 15.3499 15.7468C15.4024 15.7483 15.597 15.7995 15.8954 15.9269C16.2502 16.0785 16.4879 16.225 16.5322 16.2707C16.8273 16.6409 17.0463 17.0546 17.2584 17.4541C17.5832 18.0674 17.89 18.6462 18.4074 18.8672C18.6294 18.962 18.8764 18.9839 19.1419 18.9329C20.6065 18.6514 21.7652 16.6574 21.7248 14.4883C21.7228 14.3795 21.7098 14.2731 21.6958 14.1683Z" fill="white"/>
<path d="M21.5985 11.6558C22.8086 12.1163 24.5032 11.0433 25.3757 9.26323C26.2482 7.48325 25.973 5.66013 24.7629 5.19959C23.5521 4.73878 21.8576 5.81224 20.9851 7.59226C20.1126 9.37237 20.3877 11.195 21.5985 11.6558Z" fill="white"/>
<path d="M25.7152 11.525C24.7451 11.1548 23.4465 11.9673 22.7579 13.3745C22.0697 14.7809 22.29 16.1732 23.2596 16.5432C24.2292 16.9132 25.5288 16.101 26.217 14.6945C26.9056 13.2874 26.6852 11.8952 25.7152 11.525Z" fill="white"/>
<path d="M15.0744 7.99945C15.7629 6.59238 15.5425 5.20021 14.5728 4.83017C13.6031 4.46012 12.3039 5.27242 11.6154 6.6795C10.9271 8.08597 11.1475 9.47827 12.1173 9.84832C13.087 10.2184 14.3861 9.40593 15.0744 7.99945Z" fill="white"/>
</svg>
